<svg width="185" height="185" viewBox="0 0 185 185" fill="none" xmlns="http://www.w3.org/2000/svg">
<path d="M92.4769 44.5066C102.008 38.157 113.493 41.9778 122.125 48.2651C130.252 48.5795 139.053 51.5316 143.884 58.4687C147.113 63.1063 144.849 61.3694 149.358 64.4634C153.975 67.6315 158.112 73.0143 158.795 78.736C159.323 83.148 158.903 81.3779 161.146 85.368C169.096 99.5118 163.996 114.327 150.46 122.521C148.63 123.628 146.667 124.485 144.808 125.535C140.107 128.192 141.326 130.175 140.119 134.467C136.551 147.161 114.29 142.261 104.623 139.495C101.714 138.649 98.7866 137.709 95.9799 136.567L88.3267 133.38C81.8416 130.737 81.0237 132.28 75.7136 135.095C65.5188 140.498 50.2118 139.095 45.0666 127.458C42.0265 120.582 45.4415 121.87 37.6738 118.317C23.9988 112.061 14.856 99.3264 24.4185 84.6533C25.212 83.4358 26.1524 82.3123 27.0218 81.1483C26.5594 73.8629 29.726 68.5434 35.7451 64.4311C40.835 60.9533 38.5797 63.9035 41.87 58.5725C46.8899 50.4394 54.0837 48.9908 62.6414 48.8271C67.3875 44.007 74.0924 41.9606 80.6686 41.3717C85.5389 41.0497 88.4571 41.7276 92.4769 44.5066ZM90.323 49.3029C86.0528 42.8362 68.8457 47.4713 65.7509 52.6033C64.8328 54.1254 65.3908 55.9726 63.1662 56.4587C62.5906 56.2264 62.0593 55.95 61.5184 55.6461C61.1589 54.9965 60.9812 54.3899 60.8772 53.6567C54.4261 53.0797 45.2085 58.2373 44.5976 65.3152C44.3808 67.8257 46.2189 71.2947 43.035 72.3819C41.6147 72.2956 40.8909 71.5884 40.5708 70.2114C40.4783 69.1615 40.4252 68.273 40.5708 67.2253C37.2629 68.4188 34.179 71.8975 32.7169 75.0312C30.5698 79.633 32.6853 83.4126 35.655 86.8816C35.8288 87.1017 36.008 87.3767 36.2121 87.565C36.4646 89.1764 35.6457 89.8767 34.4185 90.6607C32.6069 90.8725 31.8595 89.6877 30.7559 88.4354C30.2694 87.7449 29.7714 87.0607 29.2961 86.3627C24.675 92.3123 23.9245 101.475 29.8453 106.858C34.0997 112.255 40.7294 113.393 46.1435 116.888C46.6758 117.927 47.5548 118.762 48.0292 119.863C48.733 121.497 48.9166 123.293 49.6005 124.936C52.7776 132.569 62.7442 134.675 69.8276 131.748C53.1797 132.14 49.3159 121.499 54.8766 121.054C56.7392 120.905 57.4104 122.867 58.6479 123.886C65.0171 129.127 74.8814 124.392 83.5019 125.589C83.5052 125.599 83.5085 125.609 83.5117 125.619C86.018 126.12 85.6461 126.249 86.6486 126.75C87.3659 127.109 89.9903 127.753 91.16 128.254L91.8933 128.568C91.9835 128.615 92.0747 128.66 92.1636 128.707C92.1679 128.702 92.1719 128.696 92.1763 128.69L95.2828 130.02C101.191 132.983 107.957 134.298 114.319 135.893C119.202 136.707 129.004 137.978 133.157 135.092C134.506 134.155 134.399 132.714 134.732 131.263C135.398 128.368 136.515 125.702 138.249 123.279L138.247 123.277C138.258 123.265 138.268 123.253 138.28 123.241C138.681 122.84 140.117 122.072 140.786 121.738L145.297 119.231L149.308 116.725C149.359 116.663 149.412 116.595 149.47 116.524C150.175 116.077 150.807 115.552 151.456 115.004C160.103 107.696 161.296 97.8667 156.252 87.8597C155.628 89.6862 154.326 93.7647 152.512 94.4075C149.065 95.6284 151.781 90.6482 152.117 89.9353C155.858 82.0103 153.055 72.8216 145.429 68.4991C145.448 69.9061 146.083 73.7062 144.415 74.4624C141.943 75.5838 142.272 72.07 142.254 70.9437C142.171 65.8241 139.118 58.7956 134.071 57.0237C131.815 55.2853 128.453 54.5271 125.687 54.1296C126.409 55.3245 127.793 57.3065 128.133 58.6293C131.506 67.8745 132.772 74.1342 130.297 84.249C129.98 85.5458 128.82 91.1195 127.475 91.6094C126.277 92.0452 125.463 91.3136 125.188 90.1683L125.219 90.0596C128.128 80.2561 130.261 74.3043 126.761 63.6557C126.514 62.9035 125.9 59.6855 124.736 60.0753C123.171 58.8718 122.131 54.4094 119.06 52.3448C114.551 47.9748 105.278 45.2376 99.2293 46.4274C94.9377 47.2715 94.7183 50.3614 92.1636 50.7176C91.3376 50.1572 91.0018 50.1768 90.323 49.3029Z" fill="#191825"/>
<path d="M90.3224 49.3028C91.0014 50.1769 91.3363 50.1577 92.1623 50.7181C92.2338 51.5532 92.9106 52.2429 93.5986 52.6621C94.0802 52.6679 94.5644 52.6848 95.0457 52.6621C96.0531 51.9459 96.5839 50.8128 97.4688 49.9803C101.249 46.4227 111.403 48.4826 115.718 50.5798C116.767 51.0896 117.987 52.0189 119.06 52.3456C122.131 54.4102 123.17 58.8722 124.735 60.0758C124.482 60.4444 124.186 60.7164 123.856 61.0113C120.524 58.7327 114.081 58.5394 114.319 63.2298C114.591 63.7736 115.377 64.054 115.817 64.4941C115.879 69.5621 116.109 73.0789 112.263 77.0163C111.023 78.2853 109.197 80.003 107.598 78.3218C109.348 77.8922 110.843 76.4761 111.979 75.1309C115.007 71.5415 114.699 67.5087 114.319 63.2298C112.792 60.9882 110.618 60.5488 109.7 63.52C112.51 73.7004 104.205 73.4012 105.151 76.6604C105.395 77.5008 106 77.9341 106.729 78.3218C99.0272 81.6539 100.37 81.6453 96.6348 88.7305C93.0443 95.5416 85.9048 99.0418 78.3321 98.9879C74.8117 106.797 65.1997 111.383 56.8758 109.753L56.8812 109.654C57.1233 109.63 57.4521 109.547 57.6111 109.353L57.5189 109.313L57.5164 109.405L57.4279 109.312C57.2432 109.32 57.081 109.305 56.8971 109.288L56.8758 109.115C65.5411 109.481 73.1604 105.953 77.2597 97.9303C84.9697 98.2356 92.6324 94.1805 95.9216 87.0146C97.4175 83.7551 94.5778 82.3087 92.9431 83.5498C92.1258 84.1702 91.7374 85.6965 91.1882 86.5843C85.5041 95.7728 76.6043 92.5581 74.9497 93.8119C74.1328 94.4309 73.6612 95.8249 73.1604 96.7108C69.6024 103.006 60.8706 107.328 53.8995 104.227C54.1784 103.46 54.4375 102.682 54.8155 101.957C58.0353 99.5866 60.8818 99.226 61.4588 93.7433C61.6529 91.8983 61.7259 90.2796 59.5485 90.1686C58.9678 87.7145 56.4436 87.2083 55.4821 89.1179C55.0951 89.8857 55.2704 90.8187 55.1374 91.6465C54.5614 95.2243 52.0314 95.2594 49.6915 96.6949C48.9844 98.1601 48.5197 99.5834 47.6529 100.993C37.858 104.743 36.2746 96.571 33.5708 97.5238C28.8166 99.1993 36.7856 108.606 47.6529 105.263C48.3903 106.1 49.281 106.703 50.2504 107.248C45.6638 108.873 43.5951 111.958 46.0587 116.565C46.1284 116.696 46.1508 116.744 46.1425 116.888C40.7284 113.393 34.0985 112.255 29.8442 106.858C29.6143 106.068 29.0605 105.312 28.6845 104.575C26.3712 100.043 27.3031 92.0548 30.755 88.4361C31.8586 89.6884 32.6056 90.8725 34.4172 90.6608C34.7881 91.5236 35.3528 91.9276 36.2114 92.256C37.2755 91.8018 37.6748 91.2432 38.0795 90.1686C37.6163 89.2165 36.8997 88.362 36.2114 87.5653C36.0074 87.377 35.8283 87.1024 35.6545 86.8824C35.5979 86.2074 34.3822 84.2765 34.0778 83.3287C32.6246 78.8052 36.1988 71.6047 40.5698 70.2121C40.8899 71.5892 41.6136 72.2956 43.034 72.3819C43.2277 73.3463 43.6909 73.8984 44.5928 74.3175C48.9941 72.456 43.7393 67.0137 49.8996 60.6124C52.8538 57.5425 57.2602 55.7157 61.5177 55.6463C62.0586 55.9502 62.5894 56.2269 63.165 56.4593C63.5412 57.4475 64.3621 58.0925 65.23 58.6298C67.5259 57.1704 66.0557 55.1314 69.1251 52.6729C73.9109 48.8396 81.2253 47.3889 87.2201 48.1755C88.316 48.3189 89.2514 49.2573 90.3224 49.3028ZM83.1804 55.6463C80.783 48.7887 71.1041 60.065 75.2814 69.1769C76.6111 72.0777 79.492 74.7291 82.7161 75.279C84.595 77.7595 86.6994 77.2273 89.4354 77.2302C90.326 77.2313 91.2836 77.4351 92.1623 77.2963L93.1263 77.8947C95.0609 79.8361 96.2988 79.9091 97.4561 77.2963C97.1335 76.5119 96.6345 75.4673 95.7192 75.279C95.3525 73.7557 93.6477 72.7642 92.3506 72.1214C87.899 69.9151 84.0816 72.4422 80.99 69.5538C80.1958 66.1747 80.5705 63.1008 82.8892 60.4285C84.2619 58.8469 86.3493 56.6468 83.1804 55.6463ZM107.598 56.4593C107.11 55.6246 106.743 54.7686 105.728 54.5081C100.433 53.1502 95.2329 58.3458 94.0788 63.3021C93.6853 64.9917 94.5912 65.6377 96.0437 66.162C96.0578 66.7271 96.3197 67.19 96.5871 67.6702C101.03 70.5442 99.3806 61.9858 105.445 60.6308C107.477 60.1773 108.586 60.3631 109.7 58.2366C109.087 57.4522 108.443 56.9659 107.598 56.4593ZM63.165 61.3831C60.9389 56.0958 51.0436 64.6181 54.6991 72.3613C56.3233 75.8015 59.5384 77.5016 63.165 77.8947C65.4862 81.6435 67.4663 84.1254 72.0024 85.2159C80.8246 87.3373 84.6514 80.7589 80.2172 79.9723C77.9798 79.5756 74.5067 83.6246 69.2632 78.8869C69.8568 78.2286 70.2929 77.5373 70.561 76.69C69.9887 75.3947 69.6631 75.2624 68.2099 75.279C68.341 71.0688 64.1807 74.9004 59.9398 72.3819C60.2433 65.5149 65.1368 65.65 65.5866 63.2461C65.8374 61.9067 64.1337 61.5634 63.165 61.3831ZM50.7588 78.8869C50.9001 77.6053 50.3928 76.1852 48.9377 76.0707C42.9368 75.5992 38.1069 89.3369 43.5265 89.9291C43.9229 90.7742 44.4262 91.8275 45.4762 91.9297C48.67 92.2408 44.7695 85.5993 50.331 82.5793C51.032 82.1988 51.8793 81.8993 52.4564 81.3425C53.7517 80.0937 52.5456 78.8497 50.7588 78.8869Z" fill="#BC5867"/>
<path d="M82.7164 75.2791C79.4923 74.7292 76.6115 72.0777 75.2818 69.177C71.1045 60.065 80.7833 48.7887 83.1808 55.6464C82.7685 57.3768 81.3289 57.8617 80.293 59.1726C77.9372 62.1546 78.0875 66.987 80.9904 69.5539C84.0819 72.4423 87.8993 69.9152 92.3509 72.1215C93.6481 72.7643 95.3528 73.7558 95.7196 75.2791C95.4243 76.6731 94.4686 77.5313 93.1267 77.8948L92.1626 77.2964C88.0287 74.172 87.0061 76.1593 82.7164 75.2791Z" fill="#191825"/>
<path d="M134.07 57.0243C131.422 57.467 130.292 56.2627 128.132 58.6301C127.793 57.3073 126.409 55.3254 125.687 54.1305C128.453 54.5279 131.815 55.286 134.07 57.0243Z" fill="#BC5867"/>
<path d="M96.044 66.1622C94.5915 65.6379 93.6856 64.9919 94.0791 63.3023C95.2332 58.346 100.433 53.1504 105.728 54.5083C106.743 54.7688 107.11 55.6248 107.598 56.4595C106.022 60.5295 101.218 56.8457 98.8667 62.7029C98.0989 64.6147 98.3623 65.8359 96.044 66.1622Z" fill="#191825"/>
<path d="M63.1651 77.8947C59.5385 77.5016 56.3234 75.8016 54.6992 72.3614C51.0437 64.6181 60.939 56.0958 63.1651 61.3831C62.9364 63.1739 62.1682 63.3925 60.8114 64.2998C57.7073 66.3763 57.5313 69.6572 59.9399 72.382C64.1808 74.9004 68.3412 71.0689 68.21 75.2791C68.0535 75.6953 67.8277 76.0166 67.5488 76.3602C67.9787 77.3336 68.5066 78.1336 69.2633 78.8869C74.5069 83.6247 77.9799 79.5756 80.2173 79.9724C84.6515 80.759 80.8247 87.3373 72.0025 85.216C67.4664 84.1255 65.4863 81.6435 63.1651 77.8947Z" fill="#191825"/>
<path d="M109.7 63.5203C110.618 60.5491 112.792 60.9884 114.319 63.2301C114.699 67.5089 115.007 71.5417 111.979 75.1312C110.843 76.4764 109.349 77.8924 107.598 78.322H106.729C106 77.9343 105.395 77.5011 105.151 76.6607C104.205 73.4015 112.51 73.7007 109.7 63.5203Z" fill="#191825"/>
<path d="M43.527 89.9294C38.1074 89.3371 42.9373 75.5995 48.9382 76.071C50.3933 76.1855 50.9006 77.6055 50.7593 78.8872C50.1935 80.2913 47.086 80.6248 45.8221 83.5165C44.9495 85.5125 46.7775 89.7328 43.527 89.9294Z" fill="#191825"/>
<path d="M49.6918 96.6952C52.0318 95.2596 54.5618 95.2246 55.1378 91.6467C55.2707 90.8189 55.0955 89.8859 55.4825 89.1181C56.444 87.2085 58.9682 87.7147 59.5489 90.1689C59.3165 95.4153 57.3383 97.6335 52.8759 99.8192C52.5004 100.916 52.0957 101.994 51.6647 103.07C52.4069 103.461 53.1469 103.858 53.8999 104.227C60.871 107.329 69.6028 103.006 73.1608 96.7111C73.6616 95.8251 74.1331 94.4311 74.9501 93.8121C76.6046 92.5583 85.5045 95.7731 91.1885 86.5845C91.7377 85.6967 92.1262 84.1705 92.9435 83.5501C94.5781 82.3089 97.4178 83.7553 95.9219 87.0148C92.6328 94.1807 84.9701 98.2359 77.2601 97.9305C73.1608 105.953 65.5415 109.481 56.8761 109.115C55.3199 108.9 53.8099 108.502 52.2771 108.171L50.2508 107.248C49.2814 106.703 48.3907 106.101 47.6532 105.263C36.7859 108.606 28.8169 99.1995 33.5711 97.5241C36.275 96.5712 37.8583 104.743 47.6532 100.993C48.52 99.5836 48.9847 98.1604 49.6918 96.6952Z" fill="#191825"/>
</svg>
