<svg width="107" height="134" viewBox="0 0 107 134" fill="none" xmlns="http://www.w3.org/2000/svg">
<path d="M51.8519 4.8168C46.3735 7.12204 43.5624 13.9876 36.6133 9.97864C34.0123 9.02341 32.3414 12.9927 31.7248 14.8946C31.0211 17.0646 31.2214 19.4901 31.2315 21.7443C31.942 24.823 32.1945 27.9404 33.0303 31.2037C34.8354 27.9078 34.6834 26.1292 35.7599 23.2695C35.819 22.9315 35.8751 22.6039 35.9798 22.2761L36.0855 22.2428C36.6952 22.7664 36.7399 24.4361 36.8078 25.1952C37.0785 28.2285 36.3246 31.1548 34.456 33.577C33.2584 35.1295 33.307 34.3006 32.7413 36.2502C31.8879 35.3726 31.3992 33.3239 29.9726 33.1271C27.7764 34.4461 30.5849 42.1233 33.6714 43.5799C33.3324 40.1793 33.5667 38.7762 33.9735 35.4851C34.2625 37.4171 34.6194 39.3581 35.1603 41.2376C36.4884 45.8485 44.7189 57.2369 49.5497 59.8617C52.9487 61.7085 56.6784 60.3869 59.4126 58.0342C62.8435 55.0815 68.5858 47.1629 70.7461 42.8146C71.8674 40.5574 72.3629 38.0389 73.5348 35.8081C73.446 38.5321 73.5305 40.8392 73.0669 43.5799C75.8872 42.2932 78.6184 35.5409 76.8414 33.3444C75.9551 32.2489 74.2636 34.6337 73.7491 35.199C74.3428 33.9499 74.9128 31.8398 76.3178 31.2869C77.9454 30.6462 79.6633 32.0323 80.2205 33.4837C81.6696 37.2562 76.6512 46.5333 72.7355 44.7041C71.134 48.8589 66.8399 54.4127 67.6525 58.2191C69.0116 64.5826 70.524 63.3811 75.65 64.3467C90.1989 67.0867 102.59 74.0772 105.933 89.6194C106.846 93.8637 107.29 98.4988 104.847 102.278L104.874 102.39C107.362 113.053 104.812 130.929 92.2356 133.709C101.449 126.172 103.627 115.787 101.496 104.149C98.1501 104.305 95.0783 103.917 92.7647 101.171C95.6711 101.122 99.8475 101.809 102.068 99.8233C99.2495 97.7276 95.065 97.0337 92.2486 99.5629C87.7793 103.577 85.387 115.374 84.4419 121.14C84.1261 123.067 84.3486 125.516 83.4042 127.227C81.2142 131.194 71.1008 132.493 66.9886 133.057C56.9404 134.435 34.8912 134.495 25.4882 129.232C22.2285 127.408 22.682 123.824 22.2047 120.636C21.4045 115.29 18.2717 101.608 13.3371 98.9392C10.9286 97.6362 6.75089 97.7152 5.2959 100.425C8.37225 102.18 18.2335 98.8501 12.5007 102.488C9.5457 104.362 8.35072 103.785 5.2959 104.149C3.17051 113.16 5.37257 125.693 12.4974 131.903C13.2481 132.558 14.0591 133.156 14.7324 133.893L14.8287 134C10.3815 132.125 8.41009 131.745 5.41236 127.134C0.78753 120.02 0.435202 110.358 2.11679 102.278C-2.7505 97.0046 1.86109 83.8644 5.11452 78.8649C10.9488 69.8995 22.2367 65.3985 32.5371 64.1001C33.6433 63.9605 34.7744 63.8949 35.8637 63.6554L36.0023 63.6241L36.032 63.6121C38.0729 61.2038 38.8125 57.5494 39.1775 54.4766C38.0634 52.7672 36.9967 51.047 36.0581 49.2331C32.2885 41.9468 35.4451 46.3577 31.3972 44.5087C26.786 42.4019 23.1691 32.5605 28.1751 31.0037C29.1978 30.6856 30.0874 31.0008 30.9875 31.4741C29.2216 24.3242 25.9198 16.0991 31.7747 9.67783C36.7706 4.19866 37.8608 9.25092 41.7495 8.48497C43.9026 8.06083 45.232 6.06639 46.7956 4.69933C58.1984 -5.26961 80.5109 1.37462 81.1258 17.5366C81.3271 22.8313 76.1348 31.1685 72.4112 35.199C65.8612 30.9186 71.1379 24.2798 69.4494 20.5588C67.065 15.3044 56.5378 20.1595 53.0925 21.2719C47.3258 23.1334 42.3589 23.1168 36.6133 20.8945C35.8712 21.0909 35.3029 21.3343 34.6556 21.7443C34.1731 21.896 33.6779 22.3479 33.2036 22.401C32.8496 21.9968 33.4832 20.9653 33.7611 20.6345C35.9785 17.9937 39.7181 19.5677 42.5869 19.8003C51.5286 20.5252 63.3776 10.272 70.9272 16.9005C75.6168 21.0178 71.3412 26.5412 71.686 32.3191C74.3503 28.7113 77.4733 22.9843 77.6371 18.6194C78.7851 5.96683 62.2012 0.99681 51.8519 4.8168ZM33.6714 68.0436C34.1823 67.1392 34.6517 66.2457 35.2631 65.4024C19.316 68.7182 3.61092 78.1329 3.83178 96.3701C9.34018 92.7222 15.8312 94.2565 19.3998 99.7342C22.0527 103.806 24.5807 112.871 25.5065 117.756C26.5576 123.3 24.7017 125.162 29.6956 126.872C30.6264 127.183 31.545 127.497 32.4497 127.879C30.1403 119.206 36.0711 110.014 30.8397 102.678C26.1537 96.1059 11.95 92.0215 11.3915 83.5294C12.4508 77.7045 16.4523 75.6121 21.7431 73.6851C23.5371 73.3259 25.2514 72.7912 27.0753 72.5583C23.8887 74.36 16.067 78.5697 15.0211 82.4447C12.8648 90.434 35.0507 93.3753 35.9958 108.38C36.4326 115.316 32.5459 122.514 33.3749 127.477L33.4411 127.879C35.313 128.574 37.4077 128.8 39.3729 129.127C51.2268 131.101 65.1891 130.603 76.7485 127.21C78.0622 126.881 79.4545 126.16 80.5021 125.305C80.5145 118.77 83.4867 106.644 86.6658 100.862C90.0844 94.6457 96.4009 92.3823 102.752 95.8997C103.112 91.2571 101.429 85.7461 99.0339 81.7938C93.4664 72.6052 81.2312 67.8589 71.3092 65.4024C72.3427 66.6851 73.4989 67.688 73.7491 69.3961C72.9394 79.472 59.0557 88.107 49.3148 85.5504C42.631 83.7966 31.4521 76.3719 33.6714 68.0436ZM42.3321 58.4292C41.8607 59.9273 41.5185 61.4377 40.8269 62.8604C39.5468 65.4937 35.8718 69.3801 37.3164 72.1632C39.5187 76.4055 44.9792 80.346 49.4704 81.7322C54.6134 83.3196 61.3324 81.1469 65.1559 77.3816C67.5683 75.22 69.1404 72.9543 70.127 69.8685C66.7903 65.4037 65.6609 64.1709 63.9981 58.9616C57.661 65.0491 51.0738 66.8091 44.3342 60.3462C43.702 59.7397 43.0446 58.9179 42.3321 58.4292Z" fill="#191825"/>
</svg>
