<svg width="47" height="28" viewBox="0 0 47 28" fill="none" xmlns="http://www.w3.org/2000/svg">
<path d="M5.45073 5.22794C12.4888 9.28826 15.3359 2.33476 20.8844 0C22.5041 0.291354 24.2906 -0.0134803 25.935 0.00859092C36.0776 0.144818 44.3893 3.2231 46.9044 13.7385C46.9394 13.8855 46.9222 13.828 46.9998 13.9793C46.834 18.4002 43.671 24.2005 40.9725 27.8545C40.6233 22.0026 44.9536 16.4085 40.204 12.2384C32.5577 5.52505 20.557 15.9096 11.5008 15.1754C8.59523 14.9398 4.80776 13.3456 2.56198 16.0202C2.28047 16.3553 1.63882 17.4 1.99731 17.8094C2.47773 17.7556 2.97929 17.2979 3.46796 17.1443C4.01247 17.6181 4.20675 18.0972 4.58639 18.689C3.49604 21.5853 3.65001 23.3867 1.82187 26.7248C0.975361 23.4197 0.719628 20.2624 0 17.1443C0.301332 17.1231 0.703108 14.0811 0.824698 13.5921C1.56679 10.6067 3.00671 7.2166 5.45073 5.22794Z" fill="#383655"/>
</svg>
