<svg xmlns="http://www.w3.org/2000/svg" width="24" height="24" viewBox="0 0 24 24" fill="none">
  <rect width="24" height="24" rx="4" fill="#f0f0f0"/>
  <path d="M6 10C6 8.34315 7.34315 7 9 7H15C16.6569 7 18 8.34315 18 10V14C18 15.6569 16.6569 17 15 17H9C7.34315 17 6 15.6569 6 14V10Z" fill="#000000"/>
  <path d="M9 12C9 10.8954 9.89543 10 11 10C12.1046 10 13 10.8954 13 12C13 13.1046 12.1046 14 11 14C9.89543 14 9 13.1046 9 12Z" fill="#ffffff"/>
  <path d="M15.5 12C15.5 11.4477 15.9477 11 16.5 11C17.0523 11 17.5 11.4477 17.5 12C17.5 12.5523 17.0523 13 16.5 13C15.9477 13 15.5 12.5523 15.5 12Z" fill="#ffffff"/>
</svg> 