<svg width="166" height="166" viewBox="0 0 166 166" fill="none" xmlns="http://www.w3.org/2000/svg">
<path d="M57.1141 50.4768C57.141 49.4412 57.0988 48.4073 57.0797 47.3721C56.8936 37.4066 63.7644 28.9028 73.2764 26.3151C77.5411 25.155 76.7841 25.7407 80.429 23.3958C83.8167 21.2161 87.1056 19.7407 91.2177 19.6923C105.586 18.4505 118.862 35.423 111.44 48.6978C109.717 51.7811 109.658 50.9333 109.965 54.4592C110.803 64.107 109.259 81.7885 97.1723 83.7702C97.2241 91.8756 105.065 94.567 111.236 97.4292C122.515 102.661 125.746 107.961 127.179 120.819C127.89 127.203 125.973 128.168 120.943 131.823C100.171 146.917 68.3992 148.792 45.6062 137.677C41.8712 135.856 37.7452 134.561 37.3646 130.356C37.161 121.668 38.6514 110.489 45.9606 104.781C52.3636 99.7801 62.2234 97.7327 66.5342 90.4614C68.9513 86.3847 70.7115 78.3697 69.4639 73.5385C68.809 75.6427 68.2328 77.7446 67.3678 79.7777C62.012 92.3681 48.1031 100.692 34.469 98.5656C33.1306 98.3568 26.2685 97.3673 31.0997 96.6131C42.7324 94.7969 52.8584 88.0356 50.1965 74.6395C49.8859 73.0761 49.4288 71.5351 49.1704 69.9623C47.8505 61.9292 50.6109 55.4883 57.1141 50.4768ZM81.8695 26.266C82.8107 26.3782 83.6854 26.5081 84.6412 26.5401C89.6958 26.9029 95.8731 29.1557 98.4426 33.8813C105.946 36.7987 107.545 39.2202 110.234 46.0872C110.289 45.8012 110.391 45.4644 110.365 45.1739C114.49 32.037 98.9931 20.0916 85.7043 24.6236C84.3773 25.0761 83.1683 25.7511 81.8695 26.266ZM91.2177 30.227C84.0528 28.0534 76.9287 27.3023 69.9988 31.0076C57.4746 37.7042 58.6259 52.1815 66.4191 62.3743C68.4264 64.9995 69.6834 66.4323 71.4115 69.2727C71.3505 66.4751 71.025 62.8707 74.8897 62.8983C77.5674 62.9171 77.2565 66.1771 77.4199 67.9989C77.7506 71.6875 78.5277 75.6696 73.1088 74.9962C73.9037 79.9214 73.1227 85.2888 71.2588 89.8937C70.7575 91.1329 69.8863 92.2462 69.4639 93.4987C70.3899 97.568 76.2598 102.212 79.4463 104.769C80.6598 105.742 85.5289 110.043 87.1228 109.622C89.3148 109.042 95.1482 101.624 96.2304 99.6144C97.0273 98.1344 97.3256 96.252 97.6732 94.6195C94.2712 91.5858 93.0975 87.725 93.1364 83.3335C86.6715 81.7351 81.6992 78.1897 77.6692 73.0612C82.7763 75.9643 88.0763 79.4915 94.0851 80.0423C99.1425 80.5063 101.297 77.9135 103.685 73.6442C107.992 65.943 107.792 61.0625 106.917 52.4211C106.254 45.8784 106.08 41.5261 98.7836 38.4415C93.9816 47.7997 83.3677 51.5863 73.3691 50.682C72.1831 50.575 70.8081 50.0524 69.6416 50.2174C64.2297 50.9819 67.2955 58.9383 70.8658 60.7636C72.1546 61.4227 73.5364 61.6974 74.0752 60.0844C73.7945 59.2771 71.4838 56.2291 73.3318 57.2805C79.8561 60.9925 69.543 68.3902 64.6113 58.1676C64.0245 56.0718 63.6529 53.9699 64.3305 51.8437C65.7487 47.3961 69.058 47.5332 72.8121 47.6379C82.0893 47.896 93.1218 44.0394 96.2265 34.4507C94.7439 32.6545 93.2554 31.3708 91.2177 30.227ZM58.5588 54.8499C58.2362 54.2141 58.0358 53.5326 57.8504 52.8465C55.1905 54.8949 53.1599 59.3572 52.7293 62.6373C52.1902 66.7429 53.1473 69.5217 53.8758 73.3806C55.4982 81.9714 53.0925 88.6763 46.6512 94.247C47.7289 93.9088 48.7401 93.4248 49.7533 92.9303C51.3864 92.4463 53.1622 91.2133 54.5534 90.2195C62.4873 84.5509 65.048 76.8834 66.5569 67.8773C63.3754 65.0913 59.3421 59.0478 58.5588 54.8499ZM99.5271 137.283C103.617 136.014 107.397 134.401 111.264 132.608C111.78 128.807 111.932 125.207 111.926 121.385C113.563 124.194 114.429 127.393 114.705 130.61C117.331 129.431 121.243 126.431 123.288 124.39C122.009 112.38 120.607 104.623 108.288 100.499C108.069 101.871 107.784 103.213 107.337 104.532C105.056 111.257 94.8227 127.213 87.3053 117.724C83.32 123.902 77.7914 122.763 72.2295 119.117C66.1705 115.145 61.2595 108.154 58.5588 101.51C49.9971 105.805 44.9127 107.371 41.5911 117.354C39.8666 122.537 39.7962 127.191 38.6197 132.16C44.8939 135.752 51.6105 137.96 58.6904 139.336C59.9114 133.606 59.5438 131.132 57.473 125.916C57.3287 125.553 57.2567 124.595 57.9168 124.854C58.7566 125.185 60.45 128.537 60.8264 129.394C62.2507 132.64 62.4582 136.501 61.3192 139.858C66.4263 140.777 70.5111 141.227 75.7138 141.202C82.454 141.279 93.3591 139.249 99.5271 137.283ZM74.0752 65.0106C72.7378 65.884 73.2125 71.837 73.6158 72.4112C73.8882 72.7993 74.393 72.7163 74.8038 72.6919C76.2024 72.0516 75.1915 69.406 75.1818 67.8053C75.174 66.5558 75.971 64.9097 74.0752 65.0106ZM66.5569 96.2075C64.4479 97.7365 62.7036 99.0487 60.4953 100.499C63.9651 107.524 74.1871 123.507 82.929 119.211C85.1292 118.13 85.6787 115.031 86.7188 114.382C88.5435 113.245 89.1958 120.385 94.6262 117.791C97.7653 116.291 100.956 112.261 102.649 109.278C104.436 106.046 106.063 102.555 106.227 98.8058C104.677 97.9385 102.987 97.2288 101.283 96.7243C99.4577 101.83 91.8363 115.891 84.7362 113.348C80.7529 111.92 67.764 101.526 66.5569 96.2075Z" fill="#191825"/>
<path d="M84.6411 26.5401C89.2888 26.2098 93.7669 25.8276 98.1996 27.7178C104.221 30.2856 107.798 35.4876 109.405 41.7508C109.673 42.7951 109.808 44.2768 110.365 45.1739C110.391 45.4644 110.288 45.8013 110.234 46.0873C107.545 39.2203 105.946 36.7987 98.4425 33.8814C95.873 29.1557 89.6957 26.903 84.6411 26.5401Z" fill="#BC5867"/>
<path d="M91.2175 30.2271C93.2552 31.3708 94.7437 32.6545 96.2264 34.4507C93.1217 44.0395 82.0891 47.8961 72.812 47.638C69.0578 47.5333 65.7485 47.3961 64.3304 51.8438C63.6528 53.97 64.0243 56.0719 64.6112 58.1676C63.6972 57.2287 63.3522 55.8213 63.0102 54.6003C58.3278 37.8897 74.6026 27.6602 89.3046 32.4159C90.0085 31.7597 90.5065 30.9014 91.2175 30.2271Z" fill="#BC5867"/>
<path d="M49.7534 92.9301C49.9875 92.6318 50.3211 92.3799 50.6038 92.1254C57.0461 86.3199 57.6089 79.7739 56.1927 71.7463C55.756 69.2696 55.0398 66.8084 55.1847 64.2682C55.3342 61.6482 56.5526 56.6539 58.5589 54.8496C59.3422 59.0476 63.3755 65.091 66.557 67.877C65.0481 76.8832 62.4874 84.5506 54.5535 90.2193C53.1623 91.213 51.3865 92.446 49.7534 92.9301Z" fill="#BC5867"/>
<path d="M74.8036 72.6917C74.3929 72.716 73.888 72.799 73.6157 72.4109C73.2124 71.8367 72.7377 65.8837 74.0751 65.0103C75.9708 64.9094 75.1739 66.5555 75.1817 67.805C75.1914 69.4057 76.2023 72.0513 74.8036 72.6917Z" fill="#BC5867"/>
<path d="M91.2178 68.9451C95.2767 70.1256 99.7626 69.1802 103.527 67.5166L103.616 67.5613L103.62 67.7361C101.523 71.9347 96.8041 74.9493 92.9228 71.0934C92.2838 70.444 91.7475 69.6843 91.2178 68.9451Z" fill="#191825"/>
<path d="M60.4954 100.499C62.7036 99.0487 64.4479 97.7365 66.557 96.2075C67.764 101.526 80.7529 111.92 84.7362 113.348C91.8363 115.891 99.4577 101.83 101.283 96.7243C102.987 97.2288 104.677 97.9385 106.227 98.8058C106.063 102.555 104.436 106.046 102.649 109.278C100.956 112.261 97.7653 116.291 94.6262 117.791C89.1959 120.385 88.5435 113.245 86.7188 114.382C85.6787 115.031 85.1292 118.13 82.929 119.211C74.1871 123.507 63.9652 107.524 60.4954 100.499Z" fill="#BC5867"/>
<path d="M87.9771 120.934C88.8013 122.373 89.1456 124.036 89.8317 125.541C92.6459 131.714 94.7449 133.219 99.4519 137.218L99.5271 137.283C93.3592 139.249 82.4541 141.279 75.7139 141.202C81.0113 136.655 84.1215 132.448 86.5016 125.894C87.0888 124.277 87.2551 122.499 87.9771 120.934Z" fill="#BC5867"/>
</svg>
