<svg width="144" height="144" viewBox="0 0 144 144" fill="none" xmlns="http://www.w3.org/2000/svg">
<path d="M69.5074 27.199C68.3633 27.2724 68.1776 26.6385 68.012 25.6755C67.7015 23.872 66.2252 16.6892 67.9453 15.8916C69.3901 16.2863 70.3306 25.757 70.1599 26.4768C70.0758 26.8305 69.7912 27.0112 69.5074 27.199Z" fill="#191825"/>
<path d="M84.7732 30.0755C84.4191 30.0173 84.1176 29.909 83.9882 29.5319C83.6952 28.6763 86.8651 19.5606 88.4823 18.9912C90.5189 19.3263 87.9077 23.8554 87.451 24.9645C86.8547 26.4122 86.2031 29.2717 84.7732 30.0755Z" fill="#191825"/>
<path d="M54.3127 31.9159C52.7059 32.495 50.3437 26.9109 49.5612 25.5628C49.1174 24.7984 47.1279 22.5442 48.38 21.805C49.9854 21.6545 54.0168 28.9152 54.6465 30.3004C54.9452 30.9576 54.8243 31.4074 54.3127 31.9159Z" fill="#191825"/>
<path d="M98.7629 38.5652C97.9537 38.7539 97.4202 37.9608 97.7251 37.2051C97.8955 36.7832 104.457 30.4705 105.601 30.0759C106.036 29.946 106.5 29.9376 106.761 30.398C107.293 31.3376 102.596 35.114 101.859 35.7997C100.933 36.6617 99.8232 37.9408 98.7629 38.5652Z" fill="#191825"/>
<path d="M60.0939 102.117C59.6599 101.06 58.8246 100.208 58.4103 99.1308C57.069 95.6444 56.9911 92.833 54.8255 89.2873C52.9611 86.2352 50.1539 83.6865 47.8803 80.9288C34.5378 64.7454 42.8271 39.566 63.2872 34.2802C65.0357 33.8285 66.8045 33.6085 68.593 33.3917C78.9936 32.9991 89.9005 37.4296 95.9757 46.1123C102.793 55.8557 102.755 68.5676 96.142 78.4288C93.5199 82.339 89.8954 85.6662 87.7793 89.8656C85.9494 93.4962 85.4733 97.6441 84.7733 101.593C85.8237 107.217 87.6544 117.315 81.2621 120.619C80.6982 120.91 80.0736 121.064 79.5243 121.386C79.2113 122.017 78.8518 122.38 78.2958 122.793C76.8758 125.411 76.2849 127.932 72.6595 128.076C69.9396 127.967 66.5806 125.733 67.0298 122.793C66.0943 122.46 65.7158 122.185 65.1147 121.386C61.1083 120.032 59.4346 116.536 59.5226 112.44C58.6631 111.316 59.6447 111.125 59.8174 109.182C58.88 108.547 58.7484 107.587 60.0939 107.339C60.0652 103.906 59.2903 106.142 59.1759 104.896C59.0271 103.277 60.383 105.188 60.0939 102.117ZM82.1686 99.8792C83.1628 90.0442 84.814 87.4631 90.7158 80.2136C94.9368 75.0291 97.7819 69.3422 97.866 62.5461C98.1498 39.5662 68.5685 27.8723 52.272 44.1059C43.8463 52.4992 42.1265 66.4293 48.6369 76.4232C51.6324 81.0222 55.9581 84.4805 58.5751 89.3717C59.7805 91.6248 61.1778 98.4091 62.4111 99.6334C64.0904 100.026 65.9363 100.236 67.6615 100.161C68.0392 91.674 64.9122 78.8397 62.1546 71.0213C55.7218 71.8383 53.7148 63.2312 58.7768 62.8931C61.8047 62.6909 63.5203 65.9047 64.4853 68.2692C65.3459 67.7447 66.2423 67.2266 67.0298 66.5947C66.3047 65.3659 63.1983 59.0594 64.9958 57.9403C67.2581 56.5318 67.2714 60.9742 67.4769 61.9521C67.6991 63.007 68.2285 64.0252 68.7865 64.9375C69.5135 64.1708 70.2197 63.3898 70.846 62.5373C70.2897 60.7728 69.8279 58.4854 70.7054 56.7388C72.5645 53.0395 77.1117 56.9638 74.7262 61.1896C74.331 61.8899 73.8439 62.5379 73.4622 63.2455C73.8841 63.9073 74.356 64.5362 74.8418 65.1521C75.7617 57.1998 81.6317 56.4879 80.9196 60.1717C80.4904 62.3914 77.4706 63.9155 76.383 66.881C77.0147 67.3515 77.6413 67.8307 78.2958 68.2692C80.0235 65.2258 84.8118 61.6044 88.3136 63.6067C90.0768 64.6149 90.1454 66.8228 89.1357 68.407C87.6465 70.7428 84.7516 71.4701 82.1686 71.7303C78.9548 79.5929 77.7825 85.6243 76.876 94.1934C76.6696 96.1462 76.3214 98.2004 76.383 100.161C77.2743 100.081 78.9798 100.151 79.7501 99.8792C80.5511 99.8463 81.3634 99.9034 82.1686 99.8792ZM72.6595 57.8334C72.3887 58.4831 72.3488 59.209 72.4227 59.9034L72.5006 60.0145C72.5566 59.9718 72.6168 59.9347 72.6595 59.8781C72.9768 59.2664 73.4889 58.286 72.6595 57.8334ZM71.7019 65.1521C69.5967 67.6938 68.0991 68.8722 65.1147 70.3237C68.1615 78.1327 70.828 92.2663 70.7341 100.161H74.1159H74.8418C74.1828 93.7426 76.2255 77.2521 80.4398 71.7303C77.5128 70.7138 75.2673 69.5033 73.2364 67.0843C72.7571 66.5137 72.2914 65.5802 71.7019 65.1521ZM85.8167 65.6018C83.7428 65.6134 81.4705 67.219 80.7114 69.1698C81.1913 69.1788 81.6939 69.1287 82.1686 69.1698C87.2334 68.8345 88.2968 64.6054 85.8167 65.6018ZM58.592 65.6018C58.3681 67.4944 59.8005 68.5896 61.5631 68.8005C61.105 67.3965 60.2016 65.7492 58.592 65.6018ZM63.0703 102.786C62.9069 104.191 63.081 105.666 63.0703 107.086C69.6637 107.106 74.655 106.308 81.1564 105.517C81.5926 105.494 82.0198 105.5 82.4563 105.517C82.3042 104.735 82.1962 103.989 82.1686 103.193C77.6036 103.517 67.4682 104.163 63.0703 102.786ZM82.1686 105.517C74.5411 108.026 70.9555 108.895 63.0703 108.913C62.8853 110.019 62.3005 111.266 63.4556 111.34C68.9307 111.517 77.5215 110.674 82.6318 108.575C82.62 107.864 82.5958 106.161 82.2828 105.554L82.1686 105.517ZM82.4563 109.182C75.7659 112.901 70.0102 113.098 62.7815 113.205C62.8062 113.906 62.7694 115.037 63.0833 115.666L63.2093 115.749C69.3388 115.866 77.1033 115.428 82.8194 113.205C82.8731 112.553 82.9238 109.542 82.4563 109.182ZM82.8194 113.411C76.9739 116.632 70.8871 117.473 64.2519 117.416C64.528 117.643 64.7753 117.858 65.1147 117.988C67.4623 118.585 78.6142 119.16 80.543 117.984C81.8131 117.209 82.9873 114.968 82.8194 113.411ZM76.383 122.431C73.4057 123.012 71.5002 122.896 68.593 122.793C68.8233 123.395 69.0919 123.845 69.5073 124.337C71.9213 126.539 76.239 124.773 76.4162 122.477L76.383 122.431Z" fill="#191825"/>
<path d="M43.3378 43.2285C42.1495 43.3421 39.8441 41.17 38.8716 40.4736L35.2404 37.8827C34.3069 37.2108 32.5457 36.4782 33.9809 35.2694C35.1231 35.1827 41.1379 39.431 42.1186 40.1853C43.2172 41.0302 44.8102 41.9162 43.3378 43.2285Z" fill="#191825"/>
<path d="M62.4112 99.6337C62.5465 97.8694 62.0858 96.0967 61.876 94.3546C60.9726 86.8475 59.3554 84.5233 54.7502 78.815C49.663 72.5094 48.3135 67.1136 49.3435 59.1281C50.9657 46.5483 63.8036 39.3185 75.6564 40.0115C80.4975 40.2944 86.7911 43.2158 89.9847 46.8419C93.5503 50.8911 94.4973 56.6306 94.141 61.8463C93.3762 73.0409 84.2126 83.0557 81.1829 94.241C80.6786 96.1032 80.3386 98.0452 79.7502 99.8795C78.9799 100.151 77.2744 100.082 76.3831 100.161C76.3215 98.2007 76.6697 96.1465 76.8762 94.1938C77.7826 85.6246 78.9549 79.5932 82.1687 71.7306C84.7517 71.4704 87.6466 70.7431 89.1358 68.4073C90.1455 66.8231 90.0769 64.6153 88.3137 63.607C84.8119 61.6047 80.0236 65.2261 78.2959 68.2695C77.6414 67.8311 77.0148 67.3518 76.3831 66.8813C77.4707 63.9158 80.4905 62.3917 80.9197 60.1721C81.6318 56.4883 75.7618 57.2001 74.8419 65.1524C74.3561 64.5365 73.8842 63.9076 73.4623 63.2458C73.844 62.5382 74.3311 61.8902 74.7263 61.1899C77.1118 56.9641 72.5646 53.0398 70.7055 56.7391C69.828 58.4857 70.2898 60.7731 70.8461 62.5377C70.2198 63.3901 69.5136 64.1712 68.7866 64.9378C68.2286 64.0255 67.6992 63.0073 67.4771 61.9524C67.2715 60.9745 67.2582 56.5321 64.9959 57.9406C63.1984 59.0597 66.3048 65.3662 67.0299 66.595C66.2424 67.2269 65.346 67.745 64.4854 68.2695C63.5204 65.9051 61.8048 62.6912 58.7769 62.8934C53.7149 63.2315 55.7219 71.8386 62.1547 71.0216C64.9123 78.84 68.0393 91.6743 67.6616 100.161C65.9364 100.236 64.0905 100.026 62.4112 99.6337ZM75.1102 43.6264C73.826 43.7049 72.8883 45.1314 74.1368 46.0587C75.052 46.7382 76.9366 46.9018 78.0712 47.3881C80.1305 48.2701 81.805 49.4817 83.6048 50.7735C83.8722 51.4359 86.9539 56.8381 87.2574 57.1669C87.9391 57.4493 88.2091 57.1981 88.7654 56.8421C90.1652 56.2112 88.6079 52.4804 88.1981 51.5484C86.0348 47.7318 82.4635 45.6863 78.3595 44.4755C77.3706 44.1838 75.9874 44.1388 75.1102 43.6264ZM88.4825 51.2069C88.9688 52.0262 89.4252 52.8756 89.7973 53.7531C90.1098 54.4897 90.7117 57.0347 92.0532 55.7576C92.6211 55.2173 92.1812 54.1176 91.9571 53.5208C90.1447 48.6917 84.2224 43.2715 79.4929 41.5058C78.6598 41.1947 76.9313 40.4896 76.1761 41.3196C74.8039 42.8277 77.534 43.1553 78.1629 43.317C79.9699 43.7814 82.1816 44.5593 83.6048 45.805C85.6309 47.2776 87.0903 49.1558 88.4825 51.2069ZM89.1178 58.6466C87.9149 58.9717 87.7181 60.4935 89.1178 60.7236C90.0918 60.3186 90.4096 58.8583 89.1178 58.6466Z" fill="#BC5867"/>
<path d="M83.6046 45.8047C82.1815 44.559 79.9697 43.7811 78.1627 43.3167C77.5338 43.155 74.8037 42.8274 76.176 41.3193C76.9311 40.4893 78.6597 41.1944 79.4927 41.5055C84.2222 43.2712 90.1445 48.6914 91.9569 53.5205C92.1811 54.1173 92.6209 55.217 92.0531 55.7573C90.7115 57.0344 90.1096 54.4894 89.7972 53.7528C89.4251 52.8753 88.9686 52.0259 88.4823 51.2066C87.0901 49.1555 85.6307 47.2773 83.6046 45.8047Z" fill="#191825"/>
<path d="M106.82 51.7655C105.938 51.8907 105.646 51.0233 106.006 50.2946C106.789 49.6128 114.757 47.2807 116.338 46.9061C117.662 46.858 117.486 48.1824 116.466 48.6439C114.708 49.4396 108.963 51.2896 106.82 51.7655Z" fill="#191825"/>
<path d="M83.6047 50.7734C84.8594 51.845 88.8371 55.1964 88.7654 56.842C88.2091 57.198 87.9391 57.4492 87.2573 57.1668C86.9539 56.838 83.8722 51.4358 83.6047 50.7734Z" fill="#191825"/>
<path d="M36.6803 56.8419C35.6265 57.102 32.9712 56.1491 31.8133 55.9059C30.7257 55.6775 24.2421 55.279 26.1904 53.3136C27.3031 53.1676 39.8683 53.9484 36.6803 56.8419Z" fill="#191825"/>
<path d="M72.6595 59.8782C72.6167 59.9347 72.5565 59.9718 72.5006 60.0146L72.4227 59.9035C72.3487 59.2091 72.3886 58.4832 72.6595 57.8335C73.4889 58.286 72.9767 59.2665 72.6595 59.8782Z" fill="#BC5867"/>
<path d="M89.1178 60.7235C87.718 60.4935 87.9149 58.9716 89.1178 58.6465C90.4096 58.8583 90.0917 60.3185 89.1178 60.7235Z" fill="#191825"/>
<path d="M65.1147 70.324C68.0991 68.8724 69.5967 67.694 71.7019 65.1523C72.2914 65.5804 72.7572 66.5139 73.2364 67.0845C75.2673 69.5036 77.5128 70.7141 80.4398 71.7305C76.2255 77.2523 74.1828 93.7428 74.8418 100.161H74.1159H70.7341C70.8281 92.2665 68.1615 78.1329 65.1147 70.324Z" fill="#BC5867"/>
<path d="M80.7114 69.1697C81.4705 67.219 83.7427 65.6133 85.8167 65.6018C88.2967 64.6053 87.2333 68.8345 82.1686 69.1697C81.6938 69.1287 81.1912 69.1787 80.7114 69.1697Z" fill="#BC5867"/>
<path d="M61.5631 68.8007C59.8005 68.5898 58.3681 67.4946 58.592 65.6021C60.2016 65.7494 61.1049 67.3967 61.5631 68.8007Z" fill="#BC5867"/>
<path d="M118.055 68.5547C116.321 68.6053 107.576 67.5588 107.174 66.8255C106.834 66.204 107.27 65.8018 107.81 65.6018C109.31 65.5793 118.005 66.0633 118.539 67.3605C118.771 67.9238 118.61 68.3567 118.055 68.5547Z" fill="#191825"/>
<path d="M27.3705 75.2659C26.55 75.5323 25.6048 75.1683 26.0411 74.344C26.779 72.9501 34.676 71.0354 36.3216 70.677C36.9198 70.6194 37.579 70.6025 37.8142 71.298C38.3837 72.9838 33.8977 73.4808 33.0127 73.6816C31.0785 74.1201 29.2428 74.6047 27.3705 75.2659Z" fill="#191825"/>
<path d="M111.231 86.7222C111.038 86.7123 98.9683 80.7985 102.56 79.1523C103.748 79.3998 106.947 81.9907 108.098 82.7819C109.112 83.4788 113.464 85.4675 111.231 86.7222Z" fill="#191825"/>
<path d="M36.3214 92.2531C32.8469 92.1792 41.0408 85.5619 43.8497 84.5264C47.0576 84.9941 40.4609 89.1951 40.0449 89.5118C38.8963 90.3859 37.7103 91.7891 36.3214 92.2531Z" fill="#22212E"/>
<path d="M68.593 122.794C71.5003 122.896 73.4058 123.012 76.3831 122.431L76.4163 122.478C76.2391 124.774 71.9213 126.54 69.5074 124.337C69.092 123.846 68.8234 123.395 68.593 122.794Z" fill="#BC5867"/>
</svg>
