<svg width="40" height="40" viewBox="0 0 40 40" fill="none" xmlns="http://www.w3.org/2000/svg">
<g clip-path="url(#clip0_40_1879)">
<path d="M1.77419 16.2903C9.79123 16.2903 16.2903 9.79123 16.2903 1.77419C16.2903 0.758936 15.4197 0 14.4045 0H3.70968C1.66088 0 0 1.66088 0 3.70968V14.4045C0 15.4197 0.758936 16.2903 1.77419 16.2903Z" fill="#383655"/>
<path d="M14.4045 39.9998C15.4197 39.9998 16.2903 39.2409 16.2903 38.2256C16.2903 30.2086 9.79123 23.7095 1.77419 23.7095C0.758936 23.7095 0 24.5801 0 25.5953V36.2901C0 38.3389 1.66088 39.9998 3.70968 39.9998H14.4045Z" fill="#383655"/>
<path d="M23.7097 1.77419C23.7097 0.758936 24.5803 0 25.5956 0H36.2904C38.3392 0 40 1.66088 40 3.70968V14.4045C40 15.4197 39.2411 16.2903 38.2258 16.2903C30.2088 16.2903 23.7097 9.79123 23.7097 1.77419Z" fill="#383655"/>
<path d="M40 25.5953C40 24.5801 39.2411 23.7095 38.2258 23.7095C30.2088 23.7095 23.7097 30.2086 23.7097 38.2256C23.7097 39.2409 24.5803 39.9998 25.5956 39.9998H36.2904C38.3392 39.9998 40 38.3389 40 36.2901V25.5953Z" fill="#383655"/>
</g>
<defs>
<clipPath id="clip0_40_1879">
<rect width="40" height="40" rx="4" fill="white"/>
</clipPath>
</defs>
</svg>
