<svg width="166" height="166" viewBox="0 0 166 166" fill="none" xmlns="http://www.w3.org/2000/svg">
<path d="M81.5268 20.5102C76.0822 22.8013 73.2884 29.6245 66.3822 25.6403C63.7972 24.6909 62.1366 28.6358 61.5238 30.5259C60.8245 32.6825 61.0235 35.0931 61.0336 37.3334C61.7397 40.3931 61.9907 43.4913 62.8213 46.7345C64.6152 43.4589 64.4641 41.6912 65.5341 38.8491C65.5928 38.5132 65.6485 38.1877 65.7526 37.8619L65.8576 37.8288C66.4636 38.3492 66.508 40.0085 66.5755 40.763C66.8446 43.7776 66.0953 46.6858 64.2382 49.0931C63.048 50.6361 63.0963 49.8123 62.5341 51.7498C61.6859 50.8776 61.2002 48.8416 59.7824 48.646C57.5998 49.9569 60.391 57.5867 63.4584 59.0343C63.1216 55.6547 63.3544 54.2602 63.7587 50.9895C64.0459 52.9095 64.4006 54.8386 64.9382 56.7065C66.2581 61.289 74.4378 72.6071 79.2388 75.2158C82.6168 77.0512 86.3236 75.7378 89.0409 73.3995C92.4507 70.465 98.1576 62.5952 100.305 58.2737C101.419 56.0305 101.911 53.5275 103.076 51.3105C102.988 54.0177 103.072 56.3106 102.611 59.0343C105.414 57.7556 108.128 51.0449 106.362 48.862C105.481 47.7733 103.8 50.1433 103.289 50.7052C103.879 49.4637 104.446 47.3667 105.842 46.8171C107.459 46.1804 109.167 47.558 109.721 49.0004C111.161 52.7497 106.173 61.9695 102.282 60.1516C100.69 64.2808 96.4224 69.8004 97.23 73.5833C98.5807 79.9075 100.084 78.7134 105.178 79.6731C119.637 82.3962 131.952 89.3436 135.275 104.79C136.182 109.008 136.623 113.615 134.195 117.37L134.222 117.482C136.695 128.079 134.16 145.845 121.662 148.608C130.818 141.117 132.983 130.797 130.865 119.23C127.54 119.385 124.487 119 122.187 116.27C125.076 116.222 129.227 116.904 131.433 114.931C128.632 112.848 124.473 112.159 121.674 114.672C117.233 118.661 114.855 130.386 113.916 136.117C113.602 138.032 113.823 140.465 112.885 142.166C110.708 146.108 100.657 147.4 96.5702 147.96C86.584 149.329 64.6707 149.389 55.3257 144.158C52.0861 142.345 52.5368 138.783 52.0625 135.616C51.2672 130.302 48.1537 116.705 43.2495 114.052C40.8558 112.757 36.7039 112.836 35.2579 115.529C38.3153 117.273 48.1157 113.964 42.4183 117.579C39.4815 119.442 38.2939 118.868 35.2579 119.23C33.1456 128.185 35.3341 140.641 42.415 146.813C43.161 147.463 43.967 148.058 44.6362 148.79L44.7319 148.897C40.3121 147.033 38.3529 146.655 35.3736 142.073C30.7773 135.003 30.4271 125.401 32.0984 117.37C27.2611 112.13 31.8442 99.0705 35.0776 94.1018C40.8759 85.1917 52.0942 80.7184 62.3311 79.428C63.4305 79.2893 64.5546 79.2241 65.6372 78.9861L65.775 78.955L65.8045 78.943C67.8328 76.5496 68.5678 72.9177 68.9306 69.8639C67.8234 68.165 66.7632 66.4554 65.8304 64.6527C62.0841 57.4113 65.2212 61.7951 61.1983 59.9574C56.6155 57.8636 53.0208 48.0829 57.996 46.5357C59.0124 46.2196 59.8966 46.5328 60.7911 47.0032C59.0361 39.8973 55.7547 31.723 61.5734 25.3413C66.5385 19.8959 67.622 24.917 71.4867 24.1558C73.6266 23.7343 74.9478 21.7521 76.5017 20.3935C87.8342 10.486 110.009 17.0893 110.62 33.1516C110.82 38.4137 105.66 46.6994 101.959 50.7052C95.4497 46.4511 100.694 39.8532 99.0158 36.1552C96.6461 30.9332 86.1839 35.7584 82.7598 36.8639C77.0286 38.7139 72.0924 38.6974 66.3822 36.4888C65.6446 36.684 65.0798 36.9259 64.4366 37.3334C63.9571 37.4842 63.4649 37.9332 62.9935 37.9861C62.6417 37.5844 63.2714 36.5592 63.5476 36.2304C65.7513 33.6059 69.4678 35.1702 72.319 35.4014C81.2055 36.1218 92.9815 25.9318 100.485 32.5194C105.145 36.6114 100.896 42.1007 101.239 47.843C103.887 44.2574 106.99 38.5658 107.153 34.2277C108.294 21.6532 91.8123 16.7138 81.5268 20.5102ZM63.4584 83.3472C63.9662 82.4484 64.4327 81.5604 65.0403 80.7223C49.1915 84.0177 33.5833 93.3743 33.8028 111.499C39.2772 107.874 45.7282 109.398 49.2748 114.842C51.9114 118.889 54.4237 127.899 55.3439 132.753C56.3885 138.263 54.544 140.113 59.5072 141.813C60.4322 142.122 61.3452 142.434 62.2442 142.814C59.9491 134.194 65.8434 125.059 60.6442 117.768C55.9871 111.236 41.871 107.177 41.3159 98.7375C42.3686 92.9486 46.3455 90.8691 51.6037 88.9539C53.3866 88.5969 55.0903 88.0655 56.903 87.834C53.7361 89.6247 45.9626 93.8084 44.9232 97.6595C42.7801 105.6 64.8292 108.523 65.7685 123.435C66.2026 130.328 62.3399 137.482 63.1637 142.414L63.2295 142.814C65.0899 143.505 67.1717 143.729 69.1248 144.054C80.9056 146.015 94.7818 145.521 106.27 142.148C107.576 141.822 108.959 141.105 110 140.256C110.013 133.761 112.967 121.71 116.126 115.964C119.524 109.785 125.801 107.536 132.113 111.032C132.471 106.418 130.798 100.941 128.418 97.0127C122.885 87.8807 110.725 83.1637 100.864 80.7223C101.891 81.9971 103.04 82.9938 103.289 84.6914C102.484 94.7052 88.6862 103.287 79.0054 100.746C72.3628 99.0031 61.2528 91.6242 63.4584 83.3472ZM72.0658 73.7921C71.5973 75.2809 71.2572 76.7821 70.5698 78.196C69.2976 80.8131 65.6453 84.6755 67.0809 87.4414C69.2697 91.6576 74.6965 95.5738 79.16 96.9514C84.2713 98.5291 90.9489 96.3698 94.7488 92.6276C97.1464 90.4793 98.7088 88.2276 99.6892 85.1609C96.3731 80.7236 95.2507 79.4984 93.5981 74.3213C87.3002 80.3712 80.7536 82.1203 74.0555 75.6972C73.4272 75.0945 72.7739 74.2778 72.0658 73.7921Z" fill="#191825"/>
<path d="M66.3823 25.6408C73.2885 29.625 76.0823 22.8018 81.5269 20.5107C83.1162 20.7966 84.8693 20.4975 86.4829 20.5192C96.4355 20.6528 104.592 23.6735 107.059 33.9919C107.094 34.1361 107.077 34.0797 107.153 34.2282C106.99 38.5663 103.887 44.2579 101.239 47.8435C100.896 42.1012 105.145 36.6119 100.485 32.5199C92.9816 25.9323 81.2056 36.1223 72.3191 35.4019C69.4679 35.1707 65.7514 33.6064 63.5477 36.2309C63.2714 36.5597 62.6418 37.5848 62.9936 37.9866C63.465 37.9337 63.9572 37.4847 64.4367 37.3339C64.971 37.7988 65.1616 38.2689 65.5342 38.8496C64.4642 41.6917 64.6153 43.4594 62.8214 46.7349C61.9908 43.4918 61.7398 40.3936 61.0337 37.3339C61.3294 37.3132 61.7236 34.3281 61.8429 33.8482C62.5711 30.9187 63.9841 27.5922 66.3823 25.6408Z" fill="#BC5867"/>
<path d="M63.4582 83.348C63.3639 82.9823 63.2724 82.626 63.2293 82.2496C60.5075 84.1077 53.3682 87.2672 51.6035 88.9547C46.3453 90.8699 42.3684 92.9494 41.3157 98.7384C40.0373 101.186 39.4262 104.335 39.5815 107.075C40.4481 107.065 41.3339 107.024 42.1982 107.093C57.1554 108.284 61.3369 129.59 59.507 141.814C54.5438 140.114 56.3883 138.264 55.3437 132.754C54.4235 127.9 51.9112 118.89 49.2746 114.843C45.728 109.399 39.277 107.875 33.8026 111.5C33.5831 93.3751 49.1913 84.0185 65.0401 80.7231C64.4325 81.5612 63.9659 82.4493 63.4582 83.348Z" fill="#BC5867"/>
<path d="M103.289 84.6922C103.04 82.9946 101.891 81.998 100.864 80.7231C110.725 83.1645 122.885 87.8816 128.418 97.0135C130.798 100.941 132.471 106.418 132.113 111.032C125.801 107.537 119.524 109.786 116.126 115.964C112.967 121.711 110.013 133.762 110 140.257C108.959 141.106 107.576 141.823 106.27 142.149C106.134 134.348 109.606 125.9 113.174 119.171C113.771 118.044 114.516 116.999 115.11 115.868C118.572 109.28 120.884 103.215 129.737 107.792C128.168 94.8215 114.546 87.7956 103.289 84.6922Z" fill="#BC5867"/>
<path d="M98.7195 136.57C98.5933 136.664 98.5343 136.686 98.3771 136.693C98.2753 135.809 101.938 130.033 102.634 128.929C106.585 122.657 111.404 115.403 113.994 108.421C114.552 106.915 115.63 102.925 116.42 101.844C117.423 102.415 117.012 105.566 116.872 106.53C115.543 115.695 105.483 131.524 98.7195 136.57Z" fill="#191825"/>
</svg>
