<svg width="98" height="126" viewBox="0 0 98 126" fill="none" xmlns="http://www.w3.org/2000/svg">
<path d="M27.7365 30.8732C27.7634 29.8368 27.7212 28.8021 27.7021 27.766C27.5158 17.7926 34.3921 9.28218 43.9115 6.69248C48.1797 5.53138 47.422 6.11761 51.0698 3.77082C54.4602 1.58941 57.7517 0.112893 61.867 0.0644489C76.2467 -1.17838 89.5326 15.8075 82.1057 29.0928C80.3805 32.1785 80.3217 31.33 80.6287 34.8587C81.4681 44.5141 79.9226 62.2096 67.8263 64.1928C67.8782 72.3046 75.7249 74.9981 81.9006 77.8625C93.1891 83.0983 96.4228 88.4028 97.8567 101.271C98.5686 107.66 96.6496 108.625 91.6161 112.283C70.8273 127.389 39.0305 129.265 16.2196 118.142C12.4817 116.32 8.3524 115.024 7.97147 110.816C7.7677 102.121 9.25931 90.9327 16.5743 85.2197C22.9823 80.2153 32.8499 78.1663 37.1641 70.8893C39.583 66.8093 41.3446 58.788 40.096 53.953C39.4406 56.0589 38.864 58.1624 37.9983 60.1972C32.6383 72.7975 18.7184 81.1284 5.07359 78.9998C3.73416 78.7909 -3.13337 77.8006 1.70162 77.0459C13.3435 75.2281 23.4774 68.4616 20.8135 55.0549C20.5027 53.4903 20.0452 51.9481 19.7866 50.3741C18.4656 42.3346 21.2282 35.8886 27.7365 30.8732ZM52.5114 6.64333C53.4533 6.75559 54.3288 6.88555 55.2853 6.9176C60.3439 7.28072 66.5261 9.53527 69.0975 14.2646C76.6072 17.1843 78.2071 19.6078 80.898 26.4801C80.9528 26.1939 81.0554 25.8568 81.0291 25.5661C85.1577 12.4188 69.6485 0.464071 56.3493 4.99957C55.0212 5.4525 53.8112 6.12803 52.5114 6.64333ZM61.867 10.6074C54.6964 8.43212 47.5667 7.68041 40.6314 11.3886C28.0973 18.0905 29.2495 32.5793 37.0489 42.7801C39.0577 45.4073 40.3157 46.8412 42.0452 49.6839C41.9842 46.884 41.6584 43.2768 45.5261 43.3044C48.2059 43.3232 47.8948 46.5858 48.0583 48.4091C48.3893 52.1006 49.167 56.0858 43.7438 55.4119C44.5394 60.3409 43.7577 65.7126 41.8923 70.3211C41.3907 71.5613 40.5188 72.6755 40.096 73.929C41.0227 78.0014 46.8973 82.6489 50.0863 85.2077C51.3008 86.1821 56.1737 90.4862 57.7688 90.0647C59.9626 89.4849 65.8006 82.0603 66.8837 80.0495C67.6812 78.5683 67.9797 76.6844 68.3276 75.0507C64.9229 72.0146 63.7483 68.1507 63.7872 63.7557C57.3172 62.1561 52.341 58.6079 48.3078 53.4754C53.4189 56.3807 58.7231 59.9107 64.7366 60.462C69.7981 60.9263 71.9539 58.3315 74.344 54.0588C78.6549 46.3516 78.4541 41.4673 77.5783 32.819C76.9151 26.2712 76.7409 21.9154 69.4389 18.8284C64.6331 28.194 54.0108 31.9835 44.0043 31.0786C42.8174 30.9715 41.4413 30.4484 40.2739 30.6136C34.8577 31.3787 37.926 39.3413 41.4991 41.1681C42.7888 41.8277 44.1718 42.1026 44.711 40.4883C44.43 39.6804 42.1175 36.63 43.967 37.6823C50.4964 41.3972 40.1752 48.8007 35.2396 38.57C34.6523 36.4726 34.2805 34.3691 34.9586 32.2412C36.3779 27.79 39.6898 27.9273 43.4469 28.0321C52.7314 28.2904 63.7726 24.4307 66.8798 14.8344C65.3959 13.0368 63.9063 11.7521 61.867 10.6074ZM29.1823 35.2497C28.8595 34.6134 28.659 33.9313 28.4734 33.2448C25.8114 35.2948 23.7792 39.7605 23.3483 43.0432C22.8087 47.152 23.7666 49.9331 24.4956 53.795C26.1193 62.3926 23.7117 69.1027 17.2654 74.6778C18.3439 74.3394 19.356 73.855 20.37 73.3601C22.0043 72.8757 23.7815 71.6417 25.1738 70.6472C33.114 64.9741 35.6767 57.3006 37.1868 48.2874C34.0027 45.4992 29.9663 39.451 29.1823 35.2497ZM70.1829 117.748C74.2758 116.478 78.0592 114.864 81.9295 113.069C82.4451 109.265 82.5976 105.662 82.5921 101.838C84.2297 104.649 85.097 107.849 85.3728 111.07C88.0008 109.89 91.9162 106.887 93.963 104.845C92.6829 92.8254 91.2796 85.062 78.9508 80.9343C78.7312 82.3079 78.4466 83.6505 77.9988 84.9711C75.7162 91.7011 65.4748 107.669 57.9515 98.173C53.9631 104.356 48.4302 103.217 42.8638 99.5676C36.8 95.5922 31.8852 88.5962 29.1823 81.9464C20.614 86.2447 15.5256 87.8119 12.2013 97.8034C10.4754 102.99 10.405 107.648 9.22751 112.621C15.5067 116.216 22.2285 118.425 29.3141 119.803C30.5361 114.068 30.1681 111.592 28.0957 106.372C27.9513 106.008 27.8793 105.049 28.5399 105.309C29.3803 105.64 31.075 108.995 31.4517 109.853C32.8771 113.101 33.0848 116.965 31.9449 120.325C37.056 121.244 41.1441 121.694 46.3509 121.67C53.0964 121.747 64.0101 119.715 70.1829 117.748ZM44.711 45.4184C43.3726 46.2925 43.8476 52.2502 44.2513 52.8248C44.5238 53.2132 45.029 53.1302 45.4401 53.1058C46.8399 52.465 45.8282 49.8173 45.8185 48.2153C45.8107 46.9648 46.6082 45.3175 44.711 45.4184ZM37.1868 76.6399C35.0761 78.1701 33.3304 79.4833 31.1204 80.9343C34.593 87.9657 44.823 103.961 53.5718 99.6614C55.7737 98.5793 56.3236 95.4779 57.3646 94.829C59.1907 93.6904 59.8435 100.837 65.2782 98.2402C68.4197 96.7392 71.6125 92.7063 73.3076 89.7211C75.0954 86.4861 76.7243 82.9922 76.8882 79.2403C75.3369 78.3723 73.6454 77.662 71.9406 77.1571C70.1135 82.267 62.4861 96.3391 55.3804 93.7936C51.3939 92.3653 38.3948 81.9623 37.1868 76.6399Z" fill="#191825"/>
</svg>
