<svg width="16" height="18" viewBox="0 0 16 18" fill="none" xmlns="http://www.w3.org/2000/svg">
<path d="M16.0001 12.2539C15.65 14.0745 14.6814 15.5333 13.0942 16.6303L12.8841 16.7003C11.6004 17.4939 10.0949 17.8907 8.36768 17.8907C5.80019 17.8907 3.75787 17.0854 2.24072 15.4749C0.746905 13.8411 0 11.7754 0 9.27795C0 6.54708 0.770247 4.31804 2.31074 2.59082C3.87457 0.863608 6.01026 0 8.71779 0C10.3983 0 11.8455 0.408463 13.0592 1.22539C14.5063 2.18236 15.4049 3.45443 15.755 5.04161V5.25167C15.755 5.67181 15.6267 5.9519 15.3699 6.09194L14.6697 6.47706C14.553 6.54709 14.4013 6.5821 14.2145 6.5821C13.701 6.5821 13.3859 6.33702 13.2692 5.84686C12.7791 3.65283 11.2503 2.55581 8.68278 2.55581C6.67547 2.55581 5.14665 3.17434 4.09631 4.4114C3.06932 5.62512 2.55582 7.24731 2.55582 9.27795C2.55582 11.1452 3.04597 12.6157 4.02629 13.6894C5.05328 14.8331 6.48874 15.4049 8.33267 15.4049C9.54639 15.4049 10.6084 15.1248 11.5187 14.5646C12.5223 13.9578 13.1409 13.0942 13.3743 11.9738C13.5843 11.2969 13.9228 10.9585 14.3896 10.9585C14.5296 10.9585 14.6697 10.9935 14.8097 11.0635L14.7747 11.0285L15.545 11.3436L16.0001 12.2539Z" fill="#383655"/>
</svg>
