<svg width="17" height="24" viewBox="0 0 17 24" fill="none" xmlns="http://www.w3.org/2000/svg">
<path d="M16.3717 22.6416C16.3717 23.2918 16.0582 23.617 15.4312 23.617H14.7693C14.1423 23.617 13.8288 23.2918 13.8288 22.6416V21.6315C12.389 23.2106 10.4732 24.0001 8.08133 24.0001C5.52689 24.0001 3.47172 23.0364 1.91583 21.109C0.638609 19.4602 0 17.3818 0 14.8738C0 12.2497 0.696664 10.09 2.09 8.39482C3.57622 6.56027 5.60816 5.64299 8.18583 5.64299C10.4848 5.64299 12.3658 6.42093 13.8288 7.97682V0.940499C13.8288 0.3135 14.1423 0 14.7693 0H15.4312C16.0582 0 16.3717 0.3135 16.3717 0.940499V22.6416ZM13.8288 14.8738C13.8288 12.8999 13.376 11.3208 12.4703 10.1365C11.4718 8.85926 10.0088 8.22065 8.08133 8.22065C6.27 8.22065 4.86505 8.8941 3.8665 10.241C2.98405 11.4485 2.54283 12.9928 2.54283 14.8738C2.54283 16.7316 2.97244 18.2526 3.83166 19.437C3.87811 19.4602 3.92455 19.495 3.971 19.5415C4.94633 20.7955 6.31644 21.4225 8.08133 21.4225C9.86944 21.4225 11.2976 20.7606 12.3658 19.437C13.3412 18.2294 13.8288 16.7084 13.8288 14.8738Z" fill="#383655"/>
</svg>
