<svg width="3" height="24" viewBox="0 0 3 24" fill="none" xmlns="http://www.w3.org/2000/svg">
<path d="M2.23583 3.49348L2.09609 3.77296C1.88648 4.35521 1.53713 4.64633 1.04804 4.64633C0.349347 4.64633 0 4.29698 0 3.59828V1.08298C0.209609 0.360993 0.558956 0 1.04804 0C1.46726 0 1.86319 0.337703 2.23583 1.01311V3.49348ZM2.23583 23.022C2.23583 23.2549 2.13103 23.4762 1.92142 23.6858C1.71181 23.8954 1.49055 24.0002 1.25765 24.0002H0.943239C0.314412 24.0002 0 23.6741 0 23.022V7.37124C0 6.71913 0.314412 6.39307 0.943239 6.39307H1.25765C1.51384 6.39307 1.7351 6.49787 1.92142 6.70748C2.13103 6.8938 2.23583 7.11505 2.23583 7.37124V23.022Z" fill="#383655"/>
</svg>
