<svg width="14" height="18" viewBox="0 0 14 18" fill="none" xmlns="http://www.w3.org/2000/svg">
<path d="M13.9999 15.9262C13.9999 16.1784 13.9082 16.3963 13.7247 16.5797C13.5413 16.7632 13.3234 16.8549 13.0712 16.8549H12.452C11.8558 16.8549 11.5577 16.5453 11.5577 15.9262V15.4446C10.2735 16.5912 8.64532 17.1645 6.67317 17.1645C4.58637 17.1645 2.96968 16.6256 1.82308 15.5478C0.607694 14.4471 0 12.8648 0 10.8009V0.997535C0 0.745284 0.0917275 0.515965 0.275182 0.309578C0.458637 0.103192 0.67649 0 0.928741 0H1.5823C1.83455 0 2.0524 0.103192 2.23586 0.309578C2.41931 0.515965 2.51104 0.745284 2.51104 0.997535V10.7665C2.51104 13.4037 3.89842 14.7222 6.67317 14.7222C8.30134 14.7222 9.53966 14.1719 10.3881 13.0711C11.1678 12.0851 11.5577 10.755 11.5577 9.08101V0.997535C11.5577 0.332512 11.8558 0 12.452 0H13.0712C13.3234 0 13.5413 0.103192 13.7247 0.309578C13.9082 0.515965 13.9999 0.745284 13.9999 0.997535V15.9262Z" fill="#383655"/>
</svg>
