<svg width="32" height="62" viewBox="0 0 32 62" fill="none" xmlns="http://www.w3.org/2000/svg">
<path d="M30.0993 2.66394C30.0036 2.29278 29.9108 1.93116 29.867 1.54914C27.1047 3.43489 19.8591 6.64142 18.0681 8.35409C12.7317 10.2978 8.69566 12.4082 7.62726 18.2833C6.32984 20.7669 5.70959 23.9633 5.8672 26.7437C6.74673 26.7338 7.64568 26.6924 8.52292 26.7621C23.7027 27.9714 27.9464 49.5945 26.0893 62.0001C21.0522 60.2746 22.9242 58.3974 21.864 52.805C20.9302 47.8785 18.3804 38.7347 15.7046 34.6279C12.1052 29.1029 5.55823 27.5555 0.00232223 31.2348C-0.22044 12.8403 15.6201 3.3444 31.7047 0C31.0881 0.850578 30.6146 1.75183 30.0993 2.66394Z" fill="#BC5867"/>
</svg>
