<svg width="47" height="28" viewBox="0 0 47 28" fill="none" xmlns="http://www.w3.org/2000/svg">
<path d="M5.45076 5.22797C12.4888 9.2883 15.336 2.33477 20.8845 0C22.5042 0.291355 24.2907 -0.0134804 25.9352 0.00859097C36.0777 0.144819 44.3895 3.22311 46.9046 13.7385C46.9396 13.8856 46.9224 13.8281 47.0001 13.9794C46.8342 18.4003 43.6712 24.2006 40.9728 27.8546C40.6235 22.0027 44.9539 16.4086 40.2042 12.2385C32.5579 5.52508 20.5571 15.9096 11.5009 15.1755C8.59527 14.9399 4.80779 13.3457 2.56199 16.0203C2.28049 16.3554 1.63883 17.4001 1.99732 17.8095C2.47774 17.7556 2.9793 17.298 3.46798 17.1444C4.01249 17.6182 4.20677 18.0973 4.58641 18.689C3.49606 21.5854 3.65003 23.3868 1.82188 26.7249C0.975366 23.4199 0.719632 20.2625 0 17.1444C0.301333 17.1232 0.703112 14.0812 0.824703 13.5922C1.5668 10.6067 3.00672 7.21664 5.45076 5.22797Z" fill="#BC5867"/>
</svg>
