<svg width="32" height="62" viewBox="0 0 32 62" fill="none" xmlns="http://www.w3.org/2000/svg">
<path d="M2.44748 4.00615C2.19648 2.29269 1.03672 1.28674 0 0C9.95289 2.46417 22.2263 7.22529 27.8111 16.4425C30.2134 20.4071 31.902 25.9353 31.541 30.5924C25.1699 27.064 18.8337 29.3344 15.4045 35.5704C12.2155 41.3702 9.23393 53.534 9.2215 60.0894C8.17071 60.9471 6.77401 61.6707 5.45619 61.9999C5.31875 54.1253 8.8229 45.5993 12.4249 38.8066C13.0277 37.6697 13.7797 36.6147 14.3792 35.4736C17.8733 28.8233 20.2069 22.7014 29.1427 27.3212C27.5591 14.23 13.8095 7.13856 2.44748 4.00615Z" fill="#BC5867"/>
</svg>
