<svg width="300" height="300" viewBox="0 0 300 300" fill="none" xmlns="http://www.w3.org/2000/svg">
  <rect width="300" height="300" fill="#F3F4F6"/>
  <path d="M150 90C129.5 90 113 106.5 113 127C113 147.5 129.5 164 150 164C170.5 164 187 147.5 187 127C187 106.5 170.5 90 150 90Z" fill="#7c3aed"/>
  <path d="M150 174C122.5 174 90 187.5 90 215V225H132V210H168V225H210V215C210 187.5 177.5 174 150 174Z" fill="#7c3aed"/>
  <path d="M150 160C146 160 143 163 143 167V205H157V167C157 163 154 160 150 160Z" fill="#7c3aed"/>
</svg> 