<svg width="800" height="400" xmlns="http://www.w3.org/2000/svg">
  <!-- North America -->
  <path d="M100,80 Q120,60 140,60 Q160,70 170,80 Q190,90 200,95 Q210,100 220,110 Q230,130 220,150 Q210,170 200,180 Q190,190 180,200 Q160,210 140,210 Q120,205 110,190 Q100,180 90,160 Q85,140 90,120 Q95,100 100,80 Z" fill="none" stroke="none"/>
  <g fill="#000" opacity="0.5">
    <circle cx="100" cy="80" r="1.2" />
    <circle cx="120" cy="70" r="1.2" />
    <circle cx="140" cy="65" r="1.2" />
    <circle cx="160" cy="70" r="1.2" />
    <circle cx="180" cy="80" r="1.2" />
    <circle cx="200" cy="95" r="1.2" />
    <circle cx="220" cy="110" r="1.2" />
    <circle cx="225" cy="130" r="1.2" />
    <circle cx="220" cy="150" r="1.2" />
    <circle cx="210" cy="170" r="1.2" />
    <circle cx="200" cy="180" r="1.2" />
    <circle cx="180" cy="190" r="1.2" />
    <circle cx="160" cy="200" r="1.2" />
    <circle cx="140" cy="200" r="1.2" />
    <circle cx="120" cy="190" r="1.2" />
    <circle cx="110" cy="180" r="1.2" />
    <circle cx="100" cy="160" r="1.2" />
    <circle cx="95" cy="140" r="1.2" />
    <circle cx="95" cy="120" r="1.2" />
    <circle cx="98" cy="100" r="1.2" />
  </g>

  <!-- South America -->
  <path d="M200,220 Q210,230 220,240 Q225,260 220,280 Q215,300 200,320 Q190,330 180,340 Q170,350 160,340 Q150,330 145,310 Q140,290 145,270 Q150,250 160,240 Q170,230 180,225 Q190,220 200,220 Z" fill="none" stroke="none"/>
  <g fill="#000" opacity="0.5">
    <circle cx="200" cy="220" r="1.2" />
    <circle cx="210" cy="230" r="1.2" />
    <circle cx="218" cy="245" r="1.2" />
    <circle cx="220" cy="260" r="1.2" />
    <circle cx="218" cy="280" r="1.2" />
    <circle cx="210" cy="300" r="1.2" />
    <circle cx="200" cy="320" r="1.2" />
    <circle cx="190" cy="330" r="1.2" />
    <circle cx="180" cy="340" r="1.2" />
    <circle cx="170" cy="335" r="1.2" />
    <circle cx="160" cy="330" r="1.2" />
    <circle cx="150" cy="320" r="1.2" />
    <circle cx="145" cy="310" r="1.2" />
    <circle cx="142" cy="290" r="1.2" />
    <circle cx="145" cy="270" r="1.2" />
    <circle cx="150" cy="250" r="1.2" />
    <circle cx="160" cy="235" r="1.2" />
    <circle cx="170" cy="225" r="1.2" />
    <circle cx="180" cy="222" r="1.2" />
    <circle cx="190" cy="220" r="1.2" />
  </g>

  <!-- Europe -->
  <path d="M300,80 Q310,70 320,65 Q330,60 340,65 Q350,70 360,80 Q370,90 380,100 Q385,110 380,120 Q375,130 370,140 Q360,150 350,155 Q340,160 330,165 Q320,160 310,150 Q300,140 295,130 Q290,120 290,110 Q295,100 300,90 Q305,85 300,80 Z" fill="none" stroke="none"/>
  <g fill="#000" opacity="0.5">
    <circle cx="300" cy="80" r="1.2" />
    <circle cx="310" cy="70" r="1.2" />
    <circle cx="320" cy="65" r="1.2" />
    <circle cx="330" cy="60" r="1.2" />
    <circle cx="340" cy="65" r="1.2" />
    <circle cx="350" cy="70" r="1.2" />
    <circle cx="360" cy="80" r="1.2" />
    <circle cx="370" cy="90" r="1.2" />
    <circle cx="380" cy="100" r="1.2" />
    <circle cx="385" cy="110" r="1.2" />
    <circle cx="380" cy="120" r="1.2" />
    <circle cx="375" cy="130" r="1.2" />
    <circle cx="370" cy="140" r="1.2" />
    <circle cx="360" cy="150" r="1.2" />
    <circle cx="350" cy="155" r="1.2" />
    <circle cx="340" cy="160" r="1.2" />
    <circle cx="330" cy="160" r="1.2" />
    <circle cx="320" cy="155" r="1.2" />
    <circle cx="310" cy="150" r="1.2" />
    <circle cx="300" cy="140" r="1.2" />
    <circle cx="295" cy="130" r="1.2" />
    <circle cx="292" cy="120" r="1.2" />
    <circle cx="290" cy="110" r="1.2" />
    <circle cx="292" cy="100" r="1.2" />
    <circle cx="295" cy="90" r="1.2" />
  </g>

  <!-- Africa -->
  <path d="M320,170 Q330,165 340,170 Q350,175 360,185 Q370,195 380,210 Q385,230 380,250 Q375,270 365,290 Q350,300 335,295 Q320,290 310,280 Q300,270 290,250 Q285,230 290,210 Q300,190 310,180 Q315,175 320,170 Z" fill="none" stroke="none"/>
  <g fill="#000" opacity="0.5">
    <circle cx="320" cy="170" r="1.2" />
    <circle cx="330" cy="165" r="1.2" />
    <circle cx="340" cy="170" r="1.2" />
    <circle cx="350" cy="175" r="1.2" />
    <circle cx="360" cy="185" r="1.2" />
    <circle cx="370" cy="195" r="1.2" />
    <circle cx="380" cy="210" r="1.2" />
    <circle cx="385" cy="230" r="1.2" />
    <circle cx="380" cy="250" r="1.2" />
    <circle cx="375" cy="270" r="1.2" />
    <circle cx="365" cy="290" r="1.2" />
    <circle cx="350" cy="300" r="1.2" />
    <circle cx="335" cy="295" r="1.2" />
    <circle cx="320" cy="290" r="1.2" />
    <circle cx="310" cy="280" r="1.2" />
    <circle cx="300" cy="270" r="1.2" />
    <circle cx="290" cy="250" r="1.2" />
    <circle cx="285" cy="230" r="1.2" />
    <circle cx="290" cy="210" r="1.2" />
    <circle cx="300" cy="190" r="1.2" />
    <circle cx="310" cy="180" r="1.2" />
  </g>

  <!-- Asia -->
  <path d="M400,80 Q420,70 440,65 Q460,60 480,65 Q500,70 520,80 Q540,90 550,100 Q570,110 580,120 Q590,130 600,150 Q605,170 600,190 Q590,210 580,230 Q560,250 540,260 Q520,270 500,275 Q480,280 460,275 Q440,270 420,260 Q400,250 390,230 Q380,210 375,190 Q370,170 375,150 Q380,130 390,110 Q395,90 400,80 Z" fill="none" stroke="none"/>
  <g fill="#000" opacity="0.5">
    <!-- Grid of dots for Asia -->
    <circle cx="400" cy="80" r="1.2" />
    <circle cx="410" cy="75" r="1.2" />
    <circle cx="420" cy="70" r="1.2" />
    <circle cx="430" cy="65" r="1.2" />
    <circle cx="440" cy="65" r="1.2" />
    <circle cx="450" cy="60" r="1.2" />
    <circle cx="460" cy="60" r="1.2" />
    <circle cx="470" cy="62" r="1.2" />
    <circle cx="480" cy="65" r="1.2" />
    <circle cx="490" cy="68" r="1.2" />
    <circle cx="500" cy="70" r="1.2" />
    <circle cx="510" cy="75" r="1.2" />
    <circle cx="520" cy="80" r="1.2" />
    <circle cx="530" cy="85" r="1.2" />
    <circle cx="540" cy="90" r="1.2" />
    <circle cx="550" cy="100" r="1.2" />
    <circle cx="560" cy="105" r="1.2" />
    <circle cx="570" cy="110" r="1.2" />
    <circle cx="580" cy="120" r="1.2" />
    <circle cx="590" cy="130" r="1.2" />
    <circle cx="595" cy="140" r="1.2" />
    <circle cx="600" cy="150" r="1.2" />
    <circle cx="602" cy="160" r="1.2" />
    <circle cx="605" cy="170" r="1.2" />
    <circle cx="603" cy="180" r="1.2" />
    <circle cx="600" cy="190" r="1.2" />
    <circle cx="595" cy="200" r="1.2" />
    <circle cx="590" cy="210" r="1.2" />
    <circle cx="585" cy="220" r="1.2" />
    <circle cx="580" cy="230" r="1.2" />
    <circle cx="570" cy="240" r="1.2" />
    <circle cx="560" cy="250" r="1.2" />
    <circle cx="550" cy="255" r="1.2" />
    <circle cx="540" cy="260" r="1.2" />
    <circle cx="530" cy="265" r="1.2" />
    <circle cx="520" cy="270" r="1.2" />
    <circle cx="510" cy="273" r="1.2" />
    <circle cx="500" cy="275" r="1.2" />
    <circle cx="490" cy="278" r="1.2" />
    <circle cx="480" cy="280" r="1.2" />
    <circle cx="470" cy="278" r="1.2" />
    <circle cx="460" cy="275" r="1.2" />
    <circle cx="450" cy="272" r="1.2" />
    <circle cx="440" cy="270" r="1.2" />
    <circle cx="430" cy="265" r="1.2" />
    <circle cx="420" cy="260" r="1.2" />
    <circle cx="410" cy="255" r="1.2" />
    <circle cx="400" cy="250" r="1.2" />
    <circle cx="395" cy="240" r="1.2" />
    <circle cx="390" cy="230" r="1.2" />
    <circle cx="385" cy="220" r="1.2" />
    <circle cx="380" cy="210" r="1.2" />
    <circle cx="378" cy="200" r="1.2" />
    <circle cx="375" cy="190" r="1.2" />
    <circle cx="373" cy="180" r="1.2" />
    <circle cx="370" cy="170" r="1.2" />
    <circle cx="372" cy="160" r="1.2" />
    <circle cx="375" cy="150" r="1.2" />
    <circle cx="378" cy="140" r="1.2" />
    <circle cx="380" cy="130" r="1.2" />
    <circle cx="385" cy="120" r="1.2" />
    <circle cx="390" cy="110" r="1.2" />
    <circle cx="392" cy="100" r="1.2" />
    <circle cx="395" cy="90" r="1.2" />
  </g>

  <!-- Australia -->
  <path d="M620,280 Q630,270 640,265 Q650,260 660,265 Q670,270 680,280 Q690,290 700,300 Q705,310 700,320 Q695,330 690,340 Q680,350 670,355 Q660,360 650,355 Q640,350 630,340 Q620,330 615,320 Q610,310 615,300 Q620,290 620,280 Z" fill="none" stroke="none"/>
  <g fill="#000" opacity="0.5">
    <circle cx="620" cy="280" r="1.2" />
    <circle cx="630" cy="270" r="1.2" />
    <circle cx="640" cy="265" r="1.2" />
    <circle cx="650" cy="260" r="1.2" />
    <circle cx="660" cy="265" r="1.2" />
    <circle cx="670" cy="270" r="1.2" />
    <circle cx="680" cy="280" r="1.2" />
    <circle cx="690" cy="290" r="1.2" />
    <circle cx="700" cy="300" r="1.2" />
    <circle cx="705" cy="310" r="1.2" />
    <circle cx="700" cy="320" r="1.2" />
    <circle cx="695" cy="330" r="1.2" />
    <circle cx="690" cy="340" r="1.2" />
    <circle cx="680" cy="350" r="1.2" />
    <circle cx="670" cy="355" r="1.2" />
    <circle cx="660" cy="360" r="1.2" />
    <circle cx="650" cy="355" r="1.2" />
    <circle cx="640" cy="350" r="1.2" />
    <circle cx="630" cy="340" r="1.2" />
    <circle cx="620" cy="330" r="1.2" />
    <circle cx="615" cy="320" r="1.2" />
    <circle cx="610" cy="310" r="1.2" />
    <circle cx="615" cy="300" r="1.2" />
    <circle cx="620" cy="290" r="1.2" />
  </g>
</svg> 